<svg
    xmlns="http://www.w3.org/2000/svg"
    xmlns:xlink="http://www.w3.org/1999/xlink"
    version="1.1"
    id="Layer_1"
    viewBox="0 0 64 64"
    xml:space="preserve"
    width="64"
    height="64"
    fill="#000000"
>
    <g id="SVGRepo_bgCarrier" stroke-width="0"></g>
    <g
        id="SVGRepo_tracerCarrier"
        stroke-linecap="round"
        stroke-linejoin="round"
    ></g>
    <g id="SVGRepo_iconCarrier">
        <style type="text/css"> .st0 { fill: #fff; } </style>
        <path
            class="st0"
            d="M59.7,11.2c0,0-1.3,0.1-2.9,0.8c0.7-1.1,1.1-2.4,1.1-3.8c0-3.9-3.1-7-7-7c-3.5,0-6.4,2.6-6.9,6 c-2.1-2-4.9-3.2-8-3.2c-6.4,0-11.6,5.2-11.6,11.6c0,0.3,0,0.6,0,0.9c-3.5-2.8-8.1-4.6-13-4.6c-10.5,0-19,8.5-19,19 c0,4.1,1.3,7.9,3.5,11c-1.7,1.3-2.8,3.3-2.8,5.7c0,4,3.2,7.2,7.2,7.2c1.3,0,2.6-0.4,3.7-1c3.5,1.7,7.5,2.7,11.8,2.7 c7.7,0,14.6-3.1,19.6-8.1c4.4-0.5,7.8-4.3,7.8-8.9c0-1.2-0.2-2.3-0.6-3.3c2.4-1.1,4.1-3.5,4.1-6.3c0-0.7-0.1-1.5-0.3-2.1 c1.8-0.5,3.3-1.7,4.1-3.3c0.7,0.1,1.3,0.2,1.9,0.2c3.2,0,5.8-2.6,5.8-5.8C63.5,13.7,61.9,11.8,59.7,11.2z M8.8,42.3 c0.2,0.4,0.3,0.8,0.5,1.2c0.7,1.9,2.2,4.2,4.5,6.4c-1,1.3-2.2,2.4-3.7,3.1c-0.5-0.5-0.8-1.2-0.8-2c0-1.5,1.2-2.7,2.7-2.7 c0.9,0,1.7,0.4,2.2,1c1.8-0.9,3.3-2,4.6-3.2c3.6,1.7,7.6,2.7,11.9,2.7c0.6,0,1.1,0,1.7-0.1c-2.2,1.6-4.7,2.9-7.4,3.7 c-2.5,0.8-5.1,1.2-7.8,1.2c-0.6,0-1.2,0-1.8-0.1c-0.3,0.1-0.5,0.1-0.8,0.1c-5.3,0-9.6-4.3-9.6-9.6C4,47.4,6,44.3,8.8,42.3z M21.6,52.1c1.4-0.6,2.7-1.4,4-2.2c1.7,1.1,3.7,1.9,5.7,2.4c-1.9,0.6-3.8,1-5.8,1.1C24.5,53.1,23,52.7,21.6,52.1z M53.7,35.3 c-0.6,0.1-1.2,0-1.7-0.3c-1.3-0.6-2.8,0.2-3,1.6c-0.4,2.4-2.5,4.1-5,4.1c-0.8,0-1.5-0.2-2.2-0.5c-0.7-0.3-1.5-0.1-2.1,0.3 c-0.6,0.5-1.1,1.2-1.2,2c-0.4,2.7-2.8,4.8-5.7,4.8c-2.8,0-5.1-2-5.6-4.7c-0.2-1.1-1.1-2-2.2-2.2c-0.8-0.1-1.7,0.1-2.3,0.7 c-0.4,0.4-0.7,0.8-1.1,1.1c-2.7-1.5-4.8-3.6-6.4-5.8c-0.7-0.9-1.4-1.8-2-2.8c-1.1-1.8-2-3.6-2.5-5.3c-0.2-0.6-0.5-1.2-0.9-1.8 c0.6-0.1,1.1-0.2,1.7-0.4c0.6-0.1,1.2-0.4,1.8-0.8c0.8-0.6,1.4-1.4,1.8-2.4c0.2-0.4,0.4-0.8,0.6-1.3c1.2,0.4,2.5,0.8,3.8,1.3 c0.5,0.2,1.1,0.3,1.6,0.4c-0.4,1-0.6,2.1-0.5,3.2c0.1,1.1,0.5,2.1,1.1,3c0.8,1.2,2,2,3.4,2.2c0.8,0.1,1.5,0,2.2-0.3 c0.3,0.3,0.5,0.5,0.8,0.8c0.7,0.6,1.6,1.2,2.5,1.6c-0.5-1.6-0.7-3.3-0.5-5c0.1-0.7,0.2-1.3,0.4-1.9c1.1,0.6,2.2,1.1,3.4,1.5 c1.7,0.6,3.4,1,5.2,1.4c-0.6,0.3-1.1,0.6-1.7,1c-1.4-0.6-2.7-1.3-3.9-2.1c-1.2-0.8-2.3-1.7-3.2-2.7c-0.4-0.4-0.9-0.9-1.3-1.4 c0.7-1.4,1.3-2.7,1.9-4.1c0.2-0.5,0.4-0.9,0.7-1.4c1.3,0.6,2.6,1.2,3.9,1.7c0.9,0.4,1.9,0.9,2.8,1.3c-0.2,0.8-0.5,1.6-0.7,2.3 c-0.3,0.9-0.4,1.7-0.5,2.5c0.1,0,0.2,0,0.3,0c2.1,0,4.1-0.7,5.7-2c1.5-1.3,2.6-3.1,2.9-5.1c1.4-0.6,2.7-1.2,4-1.8 c-0.4,1.4-1.2,2.6-2.3,3.5c-0.3,0.2-0.5,0.5-0.7,0.8C54.2,35.1,53.9,35.2,53.7,35.3z M38.1,4.1c3.9,0,7,3.1,7,7 c0,3.9-3.1,7-7,7c-3.9,0-7-3.1-7-7C31.1,7.2,34.2,4.1,38.1,4.1z M23.6,6.3c-1.6,0.9-3,2.1-4.2,3.4c-1-0.1-2-0.1-3-0.1 c-2.2,0-4.3,0.3-6.3,0.8c0.5-0.6,1.1-1.1,1.7-1.6C14.8,7.5,19,6.3,23.6,6.3z M6.6,38.7c-0.5-1.6-0.8-3.3-0.8-5.1c0-8.9,7.2-16.2,16.2-16.2c4.3,0,8.1,1.7,11,4.5c-0.3,0.3-0.7,0.6-1,0.9c-0.7,0.5-1.4,0.9-2.3,1.1c-0.7-1-1.6-1.9-2.6-2.7c-1.7-1.4-3.7-2.4-6-2.4c-5.1,0-9.3,4.2-9.3,9.3c0,0.9,0.1,1.7,0.4,2.6c0.3,0.8,0.7,1.6,1.2,2.3c0.3,0.4,0.7,0.8,1.1,1.2c0.1,0.2,0.3,0.4,0.5,0.6c0.6,0.7,1.2,1.3,1.9,1.9c1.2,1.1,2.6,2,4,2.8c0.3,0.2,0.6,0.3,1,0.4c-0.4,0.7-0.9,1.3-1.4,1.9c-2.2-1.4-4.2-3.1-5.7-5.1c-0.3-0.4-0.5-0.8-0.8-1.2c-0.4-0.6-0.8-1.3-1.1-2C7,39.6,6.8,39.1,6.6,38.7z M26.8,45.8c-0.6,0.5-1.2,0.9-1.8,1.3c-0.6-0.7-1.1-1.3-1.6-2c1.7-1.3,3.3-2.6,4.7-4.1c0.6,0.9,1.3,1.7,2.1,2.5C28.9,44.6,27.9,45.3,26.8,45.8z M35.7,38.2c-0.4-0.4-0.8-0.8-1.1-1.3c-0.4-0.5-0.7-1.1-1-1.7c-0.4-0.8-0.7-1.7-1-2.5c1.5,0.1,3,0.2,4.6,0.2c-0.3,0.7-0.4,1.5-0.3,2.3c0.1,0.7,0.3,1.4,0.6,2C36.7,37.5,36.2,37.8,35.7,38.2z M43.3,40.6c0.1-0.6,0.2-1.1,0.4-1.7c0.2-0.5,0.3-1.1,0.5-1.6c0.6,0.4,1.2,0.8,1.8,1.1C45.2,39.5,44.2,40.1,43.3,40.6z"
        ></path>
    </g>
</svg>
